# xmcd
#
# Track frame offsets:
#	150
#	13804
#	28210
#	42540
#	55181
#	68347
#	82152
#	96182
#	109235
#	121961
#	134865
#	147428
#	160671
#	171663
#	184831
#	197586
#	209953
#	223345
#	236735
#	249668
#	262634
#	274752
#	286568
#	299284
#
# Disc length: 4160 seconds
#
# Revision: 1
# Processed by: cddbd v1.5.2PL0 Copyright (c) Steve Scherf et al.
# Submitted via: audiograbber 1.83.01
#
DISCID=81103e18
DTITLE=Jenny Lou Carson - The Chin Up Girl
DYEAR=1900
DGENRE=Country
TTITLE0=I'll Keep Smiling
TTITLE1=Jealous Heart
TTITLE2=Many Tears Ago
TTITLE3=Dear God Watch Over Joe
TTITLE4=I'll Never Cry Again Over You
TTITLE5=Tell Him I'm Blue
TTITLE6=You Gotta Quit Making Me Blue
TTITLE7=Since I'm Learning Not To Yearn So Much For You
TTITLE8=Honest Injun I Love You
TTITLE9=Go West Young Man, Go West
TTITLE10=I'll Trade All Of My Tomorrows
TTITLE11=A Penny For Your Thoughts
TTITLE12=I L-O-V-E You
TTITLE13=The Crossroad Where We Said Goodbye
TTITLE14=I'll Never Trust You Again
TTITLE15=What Do I Have To Do
TTITLE16=Gonna Give You Back To The Indians
TTITLE17=Too Good To Be True
TTITLE18=I Feel Like Crying Over You
TTITLE19=Troubled Heart
TTITLE20=I Married A Mouse Of A Man
TTITLE21=Boy Take Your Time
TTITLE22=Chislin' Daddy
TTITLE23=Widow's Lament
EXTD=
EXTT0=
EXTT1=
EXTT2=
EXTT3=
EXTT4=
EXTT5=
EXTT6=
EXTT7=
EXTT8=
EXTT9=
EXTT10=
EXTT11=
EXTT12=
EXTT13=
EXTT14=
EXTT15=
EXTT16=
EXTT17=
EXTT18=
EXTT19=
EXTT20=
EXTT21=
EXTT22=
EXTT23=
PLAYORDER=
